<svg xmlns="http://www.w3.org/2000/svg" viewBox="0 0 64 64" width="64" height="64" role="img" aria-label="Bitcoin icon">
  <defs>
    <radialGradient id="g" cx="50%" cy="35%" r="70%">
      <stop offset="0%" stop-color="#ffd27a"/>
      <stop offset="60%" stop-color="#f2a900"/>
      <stop offset="100%" stop-color="#c57c00"/>
    </radialGradient>
  </defs>
  <circle cx="32" cy="32" r="30" fill="url(#g)"/>
  <g fill="#fff" transform="translate(19,12)">
    <rect x="8.5" y="0" width="3" height="6" rx="1.5"/>
    <rect x="13.5" y="0" width="3" height="6" rx="1.5"/>
    <path d="M23.3,17.2c1.7-1.3 2.7-3.2 2.7-5.6 0-5.2-4.1-8-9.9-8h-0.2V0h-3v3.4h-3.1V0h-3v3.6H2v4h4.9v20.9H2v4h3.1v3.5h3v-3.5h2.9v3.5h3v-3.7c4.5-0.3 7.7-2.2 9.2-5.4 1.1-2.4 0.9-5.3-0.9-7.7-0.6-0.8-1.3-1.5-2-2.1ZM10,7.6h5.1c3.2,0 5.1,1.2 5.1,3.7 0,2.6-2.1,3.9-5.4,3.9H10V7.6Zm5.9,19.8H10v-8h6.1c3.8,0 6.1,1.4 6.1,4 0,2.8-2.3,4-6.3,4Z"/>
  </g>
</svg>

